<!DOCTYPE svg PUBLIC "-//W3C//DTD SVG 1.1//EN" "http://www.w3.org/Graphics/SVG/1.1/DTD/svg11.dtd">
<!-- Uploaded to: SVG Repo, www.svgrepo.com, Transformed by: SVG Repo Mixer Tools -->
<svg fill="#c800ff" height="800px" width="800px" version="1.1" id="Layer_1" xmlns="http://www.w3.org/2000/svg" xmlns:xlink="http://www.w3.org/1999/xlink" viewBox="0 0 512 512" xml:space="preserve">
<g id="SVGRepo_bgCarrier" stroke-width="0"/>
<g id="SVGRepo_tracerCarrier" stroke-linecap="round" stroke-linejoin="round"/>
<g id="SVGRepo_iconCarrier"> <g transform="translate(1 1)"> <g> <path d="M476.867,383.853h-5.124c3.243-5.217,5.124-11.359,5.124-17.92c0-18.773-15.36-34.133-34.133-34.133h-4.615 c2.927-5.029,4.615-10.859,4.615-17.067c0-18.773-15.36-34.133-34.133-34.133h-4.615c2.927-5.029,4.615-10.859,4.615-17.067 c0-18.773-15.36-34.133-34.133-34.133h-194.56c-22.187,0-41.813-16.213-44.373-37.547c-1.707-11.947,1.707-23.893,10.24-33.28 c8.533-9.387,20.48-14.507,32.427-14.507h8.533c0,5.12,3.413,8.533,8.533,8.533h25.6c0,5.12,3.413,8.533,8.533,8.533h34.133 c5.12,0,8.533-3.413,8.533-8.533v-1.097l111.787-15.969c4.267-0.853,7.68-4.267,7.68-8.533V92.867c0-4.267-3.413-7.68-7.68-8.533 L272.067,68.364v-1.097c0-5.12-3.413-8.533-8.533-8.533H229.4c-5.12,0-8.533,3.413-8.533,8.533h-25.6 c-5.12,0-8.533,3.413-8.533,8.533H178.2c-30.72,0-60.587,12.8-81.067,35.84C75.8,135.533,65.56,165.4,68.12,196.973 c2.664,35.164,23.291,65.669,52.742,83.627H101.4c-18.773,0-34.133,15.36-34.133,34.133c0,6.208,1.688,12.037,4.615,17.067h-4.615 c-18.773,0-34.133,15.36-34.133,34.133c0,6.561,1.881,12.703,5.124,17.92H32.28C14.36,383.853-1,398.36-1,417.133v0.853 c0,17.92,15.36,33.28,33.28,33.28h444.587c18.773,0,34.133-14.507,34.133-33.28C511,399.213,495.64,383.853,476.867,383.853z M374.467,100.547v19.627l-102.4,14.507V86.04L374.467,100.547z M255,75.8v68.267h-17.067V75.8H255z M220.867,84.333v51.2H203.8 v-51.2H220.867z M84.333,195.267c-1.707-26.453,6.827-52.053,24.747-71.68s42.667-30.72,69.12-30.72h8.533V127H178.2 c-17.067,0-33.28,7.68-44.373,21.333c-11.093,12.8-16.213,29.013-14.507,46.08c3.413,29.867,29.867,52.053,61.44,52.053h193.707 c9.387,0,17.067,7.68,17.067,17.067c0,9.387-7.68,17.067-17.067,17.067H181.613C131.267,280.6,88.6,243.053,84.333,195.267z M84.333,314.733c0-9.387,7.68-17.067,17.067-17.067h80.213h192.853H408.6c9.387,0,17.067,7.68,17.067,17.067 S417.987,331.8,408.6,331.8H101.4C92.013,331.8,84.333,324.12,84.333,314.733z M67.267,348.867H101.4h307.2h34.133 c9.387,0,17.067,7.68,17.067,17.067S452.12,383,442.733,383H67.267c-9.387,0-17.067-7.68-17.067-17.067 S57.88,348.867,67.267,348.867z M476.867,434.2H32.28c-8.533,0-16.213-7.68-16.213-17.067v-0.853 c0-8.533,7.68-16.213,16.213-16.213h34.987h375.467h34.133c9.387,0,17.067,7.68,17.067,17.067S486.253,434.2,476.867,434.2z"/> </g> </g> </g>
</svg>