<!DOCTYPE svg PUBLIC "-//W3C//DTD SVG 1.1//EN" "http://www.w3.org/Graphics/SVG/1.1/DTD/svg11.dtd">
<!-- Uploaded to: SVG Repo, www.svgrepo.com, Transformed by: SVG Repo Mixer Tools -->
<svg fill="#858585" version="1.1" id="Capa_1" xmlns="http://www.w3.org/2000/svg" xmlns:xlink="http://www.w3.org/1999/xlink" width="800px" height="800px" viewBox="0 0 530.936 530.937" xml:space="preserve">
<g id="SVGRepo_bgCarrier" stroke-width="0"/>
<g id="SVGRepo_tracerCarrier" stroke-linecap="round" stroke-linejoin="round"/>
<g id="SVGRepo_iconCarrier"> <g> <path d="M528.453,462.126L421.244,163.842c-17.053-39.989-37.362-61.712-76.834-61.712h-3.937 c1.371-5.745,2.163-11.706,2.163-17.856c0-42.555-34.619-77.171-77.171-77.171c-42.549,0-77.171,34.623-77.171,77.171 c0,6.156,0.804,12.111,2.166,17.856h-9.247c-39.475,0-55.514,29.374-66.121,61.712L4.313,462.126 c-19.653,53.965,31.995,61.708,71.476,61.708h381.197C496.458,523.834,542.16,508.938,528.453,462.126z M224.028,84.274 c0-22.848,18.583-41.438,41.438-41.438c22.856,0,41.44,18.589,41.44,41.438c0,6.398-1.502,12.439-4.108,17.856h-74.665 C225.529,96.713,224.028,90.672,224.028,84.274z"/> </g> </g>
</svg>